# xmcd
#
# Track frame offsets: 
#        150
#        15684
#        33684
#        45679
#        59465
#
# Disc length: 1094 seconds
#
# Revision: 0
# Processed by: cddbd v1.5.2PL0 Copyright (c) Steve Scherf et al.
# Submitted via: ExactAudioCopy v1.0b3
#
DISCID=3f044405
DTITLE=The Impossebulls - Five By Five V: Lust
DYEAR=2016
DGENRE=Rap
TTITLE0=My Minute
TTITLE1=I'mma Say It Soon Yo!
TTITLE2=Jah Rastafari Loop Dub
TTITLE3=Pope
TTITLE4=Thank U ('92)
EXTD=
EXTT0=
EXTT1=
EXTT2=
EXTT3=
EXTT4=
PLAYORDER=
